<svg width="150" height="150" viewBox="0 0 150 150" fill="none" xmlns="http://www.w3.org/2000/svg">
<g filter="url(#filter0_d_440_5)">
<rect x="25" y="10" width="100" height="100" rx="10" fill="url(#paint0_linear_440_5)"/>
<rect x="26" y="11" width="98" height="98" rx="9" stroke="#FB71CD" stroke-width="2"/>
</g>
<path d="M95.6055 38.1982H54.3945C51.9714 38.1982 50 40.1696 50 42.5928V69.7679C50 72.191 51.9714 74.1624 54.3945 74.1624H69.1889V79.7304H66.9831C66.1741 79.7304 65.5183 80.3862 65.5183 81.1952C65.5183 82.0042 66.1741 82.6601 66.9831 82.6601H83.017C83.826 82.6601 84.4818 82.0042 84.4818 81.1952C84.4818 80.3862 83.826 79.7304 83.017 79.7304H80.8112V74.1624H95.6055C98.0286 74.1624 100 72.191 100 69.7679V42.5928C100 40.1696 98.0286 38.1982 95.6055 38.1982ZM77.8814 79.7305H72.1186V74.1625H77.8814V79.7305ZM97.0703 69.768C97.0703 70.5757 96.4132 71.2328 95.6055 71.2328H54.3945C53.5868 71.2328 52.9297 70.5757 52.9297 69.768V67.5411H97.0703V69.768ZM97.0703 64.6114H52.9297V42.5928C52.9297 41.7851 53.5868 41.1279 54.3945 41.1279H95.6055C96.4132 41.1279 97.0703 41.7851 97.0703 42.5928V64.6114Z" fill="white"/>
<path d="M67.8004 56.6102L63.8323 53.9012L67.8004 51.1921C68.4686 50.7359 68.6404 49.8245 68.1843 49.1563C67.7282 48.4883 66.8167 48.3164 66.1485 48.7725L60.4084 52.6913C60.0086 52.9642 59.7695 53.4171 59.7695 53.9011C59.7695 54.385 60.0086 54.8381 60.4084 55.111L66.1485 59.0299C66.4012 59.2024 66.6887 59.285 66.9731 59.285C67.4409 59.285 67.9007 59.0614 68.1843 58.646C68.6404 57.9778 68.4686 57.0664 67.8004 56.6102Z" fill="white"/>
<path d="M89.5916 52.6913L83.8515 48.7725C83.1834 48.3164 82.272 48.4883 81.8157 49.1563C81.3596 49.8245 81.5315 50.7359 82.1996 51.1921L86.1677 53.9012L82.1996 56.6101C81.5315 57.0662 81.3596 57.9776 81.8157 58.6458C82.0994 59.0613 82.559 59.2849 83.0269 59.2849C83.3113 59.2849 83.5988 59.2021 83.8515 59.0297L89.5916 55.1108C89.9914 54.8379 90.2305 54.385 90.2305 53.9011C90.2305 53.4171 89.9913 52.9643 89.5916 52.6913Z" fill="white"/>
<path d="M78.658 47.3935C77.9529 46.9971 77.0597 47.2473 76.6632 47.9527L70.7826 58.4139C70.3863 59.119 70.6366 60.0121 71.3419 60.4085C71.5688 60.5362 71.8152 60.5967 72.0583 60.5967C72.5704 60.5967 73.0676 60.3277 73.3365 59.8495L79.2172 49.3882C79.6136 48.6831 79.3632 47.79 78.658 47.3935Z" fill="white"/>
<defs>
<filter id="filter0_d_440_5" x="0" y="0" width="150" height="150" filterUnits="userSpaceOnUse" color-interpolation-filters="sRGB">
<feFlood flood-opacity="0" result="BackgroundImageFix"/>
<feColorMatrix in="SourceAlpha" type="matrix" values="0 0 0 0 0 0 0 0 0 0 0 0 0 0 0 0 0 0 127 0" result="hardAlpha"/>
<feOffset dy="15"/>
<feGaussianBlur stdDeviation="12.5"/>
<feColorMatrix type="matrix" values="0 0 0 0 0.929412 0 0 0 0 0.227451 0 0 0 0 0.698039 0 0 0 0.3 0"/>
<feBlend mode="normal" in2="BackgroundImageFix" result="effect1_dropShadow_440_5"/>
<feBlend mode="normal" in="SourceGraphic" in2="effect1_dropShadow_440_5" result="shape"/>
</filter>
<linearGradient id="paint0_linear_440_5" x1="75" y1="10" x2="75" y2="110" gradientUnits="userSpaceOnUse">
<stop stop-color="#FE75D1"/>
<stop offset="1" stop-color="#ED3AB2"/>
</linearGradient>
</defs>
</svg>
