<svg width="150" height="150" viewBox="0 0 150 150" fill="none" xmlns="http://www.w3.org/2000/svg">
<g filter="url(#filter0_d_440_6)">
<rect x="25" y="10" width="100" height="100" rx="10" fill="url(#paint0_linear_440_6)"/>
<rect x="26" y="11" width="98" height="98" rx="9" stroke="#AE6BF9" stroke-width="2"/>
</g>
<path d="M96.6172 42.6333H56.3828C53.6904 42.6333 51.5 44.8258 51.5 47.5207V77.4319C51.5 80.1268 53.6904 82.3193 56.3828 82.3193H71.6172V86.8157H70.6406C69.3368 86.8157 68.1111 87.3243 67.1883 88.2476C66.2659 89.1713 65.7578 90.3981 65.7578 91.7032C65.7578 92.2431 66.195 92.6807 66.7344 92.6807H86.2656C86.805 92.6807 87.2422 92.2431 87.2422 91.7032C87.2422 89.0082 85.0518 86.8157 82.3594 86.8157H81.3828V82.3193H96.6172C99.3096 82.3193 101.5 80.1268 101.5 77.4319V47.5207C101.5 44.8258 99.3096 42.6333 96.6172 42.6333ZM56.3828 44.5883H96.6172C98.2327 44.5883 99.5469 45.9037 99.5469 47.5207V72.5444H95.0547V50.0622C95.0547 49.5223 94.6175 49.0847 94.0781 49.0847H86.2656C85.7262 49.0847 85.2891 49.5223 85.2891 50.0622V72.5444H80.4009C80.3906 71.5333 80.3643 70.5368 80.3223 69.57C80.1514 65.589 79.7619 62.9223 79.5594 61.7493C81.5743 60.2644 82.1244 57.5121 80.8926 55.3739L77.5078 49.5059C77.3331 49.2035 77.0108 49.0171 76.6621 49.0171C76.3131 49.0171 75.9907 49.2035 75.8164 49.5059L72.4301 55.3742C71.2689 57.3903 71.6805 60.0017 73.5047 61.5427C73.2934 62.7123 72.8669 65.4744 72.6815 69.568C72.6376 70.5452 72.6098 71.5425 72.5991 72.5444H67.7109V57.8821C67.7109 57.7271 67.6743 57.5858 67.6144 57.4602C67.6118 57.4552 67.6102 57.4499 67.6079 57.4449L63.7017 49.625C63.5361 49.294 63.1982 49.0847 62.8281 49.0847C62.4581 49.0847 62.1201 49.294 61.9546 49.625L58.0483 57.4449C58.046 57.4499 58.0445 57.4552 58.0422 57.4602C57.9812 57.587 57.9453 57.7305 57.9453 57.8821V72.5444H53.4531V47.5207C53.4531 45.9037 54.7673 44.5883 56.3828 44.5883ZM87.2422 72.5444V51.0397H93.1016V52.9947H92.125C91.5856 52.9947 91.1484 53.4322 91.1484 53.9722C91.1484 54.5121 91.5856 54.9496 92.125 54.9496H93.1016V57.8821H92.125C91.5856 57.8821 91.1484 58.3197 91.1484 58.8596C91.1484 59.3995 91.5856 59.8371 92.125 59.8371H93.1016V62.7695H92.125C91.5856 62.7695 91.1484 63.2071 91.1484 63.747C91.1484 64.2869 91.5856 64.7245 92.125 64.7245H93.1016V68.6345H92.125C91.5856 68.6345 91.1484 69.072 91.1484 69.612C91.1484 70.1519 91.5856 70.5894 92.125 70.5894H93.1016V72.5444H87.2422ZM76.6621 62.702C77.0169 62.702 77.3701 62.6611 77.7157 62.5847C77.8969 63.7474 78.1632 65.8047 78.3208 68.6345H74.6857C74.8509 65.8066 75.1298 63.7172 75.3224 62.5152C75.755 62.6386 76.2055 62.702 76.6621 62.702ZM76.6621 60.747C74.4301 60.747 72.9909 58.3155 74.1219 56.3513L76.6621 51.9496L79.2008 56.351C80.3277 58.3071 78.9082 60.747 76.6621 60.747ZM74.5961 70.5894H78.4066C78.4272 71.2317 78.4413 71.885 78.4482 72.5444H74.5522C74.5595 71.8892 74.5743 71.2359 74.5961 70.5894ZM63.8047 72.5444V58.8596H65.7578V72.5444H63.8047ZM59.8984 72.5444V58.8596H61.8516V72.5444H59.8984ZM60.5019 56.9046L62.8281 52.2478L65.1543 56.9046H60.5019ZM85.1216 90.7257H67.8773C68.0207 90.3183 68.2549 89.9448 68.5692 89.6298C69.1231 89.0758 69.8586 88.7707 70.6406 88.7707H82.3594C83.6327 88.7707 84.7188 89.5878 85.1216 90.7257ZM79.4297 86.8157H73.5703V82.3193H79.4297V86.8157ZM96.6172 80.3643H56.3828C54.7673 80.3643 53.4531 79.0489 53.4531 77.4319V74.4994H99.5469V77.4319C99.5469 79.0489 98.2327 80.3643 96.6172 80.3643Z" fill="white"/>
<defs>
<filter id="filter0_d_440_6" x="0" y="0" width="150" height="150" filterUnits="userSpaceOnUse" color-interpolation-filters="sRGB">
<feFlood flood-opacity="0" result="BackgroundImageFix"/>
<feColorMatrix in="SourceAlpha" type="matrix" values="0 0 0 0 0 0 0 0 0 0 0 0 0 0 0 0 0 0 127 0" result="hardAlpha"/>
<feOffset dy="15"/>
<feGaussianBlur stdDeviation="12.5"/>
<feColorMatrix type="matrix" values="0 0 0 0 0.294118 0 0 0 0 0.027451 0 0 0 0 0.588235 0 0 0 0.2 0"/>
<feBlend mode="normal" in2="BackgroundImageFix" result="effect1_dropShadow_440_6"/>
<feBlend mode="normal" in="SourceGraphic" in2="effect1_dropShadow_440_6" result="shape"/>
</filter>
<linearGradient id="paint0_linear_440_6" x1="75" y1="10" x2="75" y2="110" gradientUnits="userSpaceOnUse">
<stop stop-color="#9247E6"/>
<stop offset="1" stop-color="#4B0796"/>
</linearGradient>
</defs>
</svg>
