<svg width="80" height="80" viewBox="0 0 80 80" fill="none" xmlns="http://www.w3.org/2000/svg">
<circle cx="40" cy="40" r="39.5" fill="white" stroke="#952DDE"/>
<path d="M52.3633 29H27.6367C26.1846 29 25 30.1834 25 31.6367V49.2148C25 50.6633 26.1794 51.8516 27.6367 51.8516H52.3633C53.8117 51.8516 55 50.6722 55 49.2148V31.6367C55 30.1883 53.8206 29 52.3633 29ZM51.9992 30.7578L40.0559 42.7012L28.0093 30.7578H51.9992ZM26.7578 48.8509V31.9923L35.2234 40.3853L26.7578 48.8509ZM28.0008 50.0938L36.4717 41.6229L39.4398 44.5655C39.7834 44.9062 40.3379 44.9051 40.6801 44.5629L43.5742 41.6687L51.9992 50.0938H28.0008ZM53.2422 48.8508L44.8172 40.4258L53.2422 32.0007V48.8508Z" fill="#952DDE"/>
</svg>
