<svg width="80" height="80" viewBox="0 0 80 80" fill="none" xmlns="http://www.w3.org/2000/svg">
<circle cx="40" cy="40" r="39.5" fill="white" stroke="#ED3AB2"/>
<path d="M39.5469 25C33.7313 25 29 29.7313 29 35.5469C29 37.5118 29.5443 39.4293 30.5744 41.0929L38.9465 54.5845C39.1069 54.843 39.3894 55 39.6933 55C39.6956 55 39.6979 55 39.7003 55C40.0068 54.9976 40.2899 54.8357 40.4473 54.5727L48.6061 40.9504C49.5794 39.322 50.0938 37.4535 50.0938 35.5469C50.0938 29.7313 45.3624 25 39.5469 25ZM47.0976 40.0479L39.68 52.4328L32.0684 40.1668C31.211 38.7821 30.7461 37.1846 30.7461 35.5469C30.7461 30.7006 34.7006 26.7461 39.5469 26.7461C44.3932 26.7461 48.3418 30.7006 48.3418 35.5469C48.3418 37.136 47.9076 38.6927 47.0976 40.0479Z" fill="#ED3AB2"/>
<path d="M39.5469 30.2734C36.6391 30.2734 34.2734 32.6391 34.2734 35.5469C34.2734 38.4361 36.6006 40.8203 39.5469 40.8203C42.5295 40.8203 44.8203 38.4043 44.8203 35.5469C44.8203 32.6391 42.4546 30.2734 39.5469 30.2734ZM39.5469 39.0742C37.5982 39.0742 36.0195 37.4903 36.0195 35.5469C36.0195 33.6084 37.6084 32.0195 39.5469 32.0195C41.4854 32.0195 43.0684 33.6084 43.0684 35.5469C43.0684 37.4619 41.5264 39.0742 39.5469 39.0742Z" fill="#ED3AB2"/>
</svg>
