<svg width="80" height="80" viewBox="0 0 80 80" fill="none" xmlns="http://www.w3.org/2000/svg">
<circle cx="40" cy="40" r="39.5" fill="white" stroke="#952DDE"/>
<path d="M31.0564 44.942C34.0154 48.4791 37.5773 51.264 41.6428 53.2346C43.1907 53.9681 45.2607 54.8384 47.567 54.9876C47.7099 54.9938 47.8467 55 47.9897 55C49.5375 55 50.7808 54.4654 51.7941 53.3651C51.8003 53.3589 51.8127 53.3465 51.8189 53.334C52.1795 52.8989 52.5898 52.5073 53.0187 52.0908C53.3109 51.811 53.6092 51.5189 53.8952 51.2205C55.2193 49.8404 55.2193 48.0874 53.8828 46.7509L50.1467 43.0149C49.5127 42.356 48.7543 42.0079 47.9586 42.0079C47.1629 42.0079 46.3983 42.356 45.7456 43.0087L43.5201 45.2341C43.315 45.116 43.1036 45.0104 42.9047 44.9109C42.6561 44.7866 42.4261 44.6685 42.2209 44.5379C40.1944 43.2511 38.3544 41.5727 36.5952 39.4157C35.7062 38.2905 35.1095 37.3456 34.693 36.3821C35.2773 35.8537 35.8243 35.3005 36.3527 34.7596C36.5392 34.5669 36.7319 34.3742 36.9246 34.1815C37.596 33.5102 37.9565 32.7331 37.9565 31.9436C37.9565 31.1542 37.6022 30.3771 36.9246 29.7058L35.0722 27.8533C34.8546 27.6357 34.6494 27.4244 34.4381 27.2068C34.0278 26.7841 33.5989 26.3489 33.1762 25.9573C32.5359 25.3295 31.7837 25 30.988 25C30.1986 25 29.4402 25.3295 28.775 25.9635L26.4501 28.2884C25.6047 29.1339 25.126 30.1596 25.0266 31.3469C24.9085 32.8326 25.182 34.4115 25.8906 36.3199C26.9785 39.2727 28.6196 42.0141 31.0564 44.942ZM26.5434 31.4774C26.6179 30.6506 26.935 29.9606 27.5317 29.3639L29.8442 27.0514C30.2048 26.7033 30.6026 26.523 30.988 26.523C31.3672 26.523 31.7526 26.7033 32.107 27.0638C32.5235 27.4492 32.9151 27.8533 33.3378 28.2822C33.5492 28.4998 33.7667 28.7174 33.9843 28.9412L35.8368 30.7936C36.2222 31.179 36.4211 31.5707 36.4211 31.9561C36.4211 32.3415 36.2222 32.7331 35.8368 33.1185C35.6441 33.3112 35.4514 33.5102 35.2586 33.7029C34.6805 34.2872 34.1397 34.8404 33.5429 35.3688C33.5305 35.3813 33.5243 35.3875 33.5119 35.3999C32.9959 35.9159 33.0767 36.407 33.201 36.7799C33.2073 36.7986 33.2135 36.811 33.2197 36.8297C33.6983 37.9797 34.3635 39.0738 35.4016 40.3792C37.2665 42.6792 39.2309 44.4633 41.3942 45.8371C41.6615 46.0112 41.9474 46.1479 42.2147 46.2847C42.4634 46.409 42.6934 46.5271 42.8985 46.6577C42.9234 46.6701 42.942 46.6826 42.9669 46.695C43.172 46.8007 43.371 46.8504 43.5699 46.8504C44.0672 46.8504 44.3904 46.5334 44.4961 46.4277L46.821 44.1028C47.1816 43.7422 47.5732 43.5495 47.9586 43.5495C48.431 43.5495 48.8165 43.8417 49.0589 44.1028L52.8073 47.845C53.5533 48.591 53.5471 49.3991 52.7887 50.1886C52.5276 50.4683 52.2541 50.7356 51.9619 51.0153C51.5268 51.438 51.073 51.8732 50.6627 52.3643C49.9478 53.1351 49.0962 53.4956 47.9959 53.4956C47.8902 53.4956 47.7783 53.4894 47.6727 53.4832C45.6337 53.3527 43.7377 52.557 42.3142 51.8794C38.4476 50.0083 35.0535 47.3539 32.2375 43.9847C29.9188 41.1935 28.3585 38.5951 27.3266 35.8102C26.6863 34.1007 26.4439 32.7269 26.5434 31.4774Z" fill="#952DDE"/>
</svg>
