<svg width="15" height="15" viewBox="0 0 15 15" fill="none" xmlns="http://www.w3.org/2000/svg">
<path d="M13.5 7.49976C13.5 10.8135 10.8137 13.4998 7.5 13.4998C4.18628 13.4998 1.5 10.8135 1.5 7.49976C1.5 4.18604 4.18628 1.49976 7.5 1.49976C10.8137 1.49976 13.5 4.18604 13.5 7.49976Z" fill="#E6C5FE"/>
<path d="M7.5 15C3.35791 15 0 11.6421 0 7.5C0 3.35791 3.35791 0 7.5 0C11.6421 0 15 3.35791 15 7.5C14.9954 11.6401 11.6401 14.9954 7.5 15ZM7.5 0.5C3.63403 0.5 0.5 3.63403 0.5 7.5C0.5 11.366 3.63403 14.5 7.5 14.5C11.366 14.5 14.5 11.366 14.5 7.5C14.4956 3.63586 11.3641 0.504395 7.5 0.5Z" fill="#952DDE"/>
<path d="M11 7.50012C11 9.43311 9.43298 11.0001 7.5 11.0001C5.56702 11.0001 4 9.43311 4 7.50012C4 5.56714 5.56702 4.00012 7.5 4.00012C9.43298 4.00012 11 5.56714 11 7.50012Z" fill="#952DDE"/>
</svg>
