<svg width="12" height="15" viewBox="0 0 12 15" fill="none" xmlns="http://www.w3.org/2000/svg">
<path d="M5.76179 0C8.94407 0 11.5236 2.60156 11.5236 5.81104C11.5236 8.26657 9.81277 10.9426 6.43548 13.8678C6.24769 14.0305 6.00825 14.1199 5.76069 14.1197C5.51312 14.1194 5.27384 14.0297 5.08633 13.8666L4.86295 13.6711C1.63517 10.8222 0 8.21174 0 5.81104C0 2.60156 2.57951 0 5.76179 0ZM5.76179 3.57602C5.17405 3.57602 4.61039 3.8115 4.19479 4.23064C3.7792 4.64979 3.54572 5.21828 3.54572 5.81104C3.54572 6.4038 3.7792 6.97229 4.19479 7.39143C4.61039 7.81058 5.17405 8.04605 5.76179 8.04605C6.34953 8.04605 6.9132 7.81058 7.32879 7.39143C7.74439 6.97229 7.97787 6.4038 7.97787 5.81104C7.97787 5.21828 7.74439 4.64979 7.32879 4.23064C6.9132 3.8115 6.34953 3.57602 5.76179 3.57602Z" fill="#ED3AB2"/>
</svg>
