<svg width="15" height="11" viewBox="0 0 15 11" fill="none" xmlns="http://www.w3.org/2000/svg">
<path d="M14.8679 0.980396L10.3187 5.50029L14.8679 10.0202C14.9501 9.8483 15 9.65828 15 9.45537V1.54521C15 1.34227 14.9501 1.15228 14.8679 0.980396Z" fill="#ED3AB2"/>
<path d="M13.6816 0.226562H1.31835C1.11541 0.226562 0.925422 0.276455 0.753538 0.358692L6.56788 6.14375C7.08199 6.65786 7.918 6.65786 8.4321 6.14375L14.2464 0.358692C14.0746 0.276455 13.8846 0.226562 13.6816 0.226562Z" fill="#ED3AB2"/>
<path d="M0.132129 0.980396C0.0498926 1.15228 0 1.34227 0 1.54521V9.45537C0 9.65831 0.0498926 9.84832 0.132129 10.0202L4.68132 5.50029L0.132129 0.980396Z" fill="#ED3AB2"/>
<path d="M9.69726 6.12148L9.05352 6.76522C8.19691 7.62183 6.80305 7.62183 5.94644 6.76522L5.30273 6.12148L0.753538 10.6414C0.925422 10.7236 1.11541 10.7735 1.31835 10.7735H13.6816C13.8846 10.7735 14.0746 10.7236 14.2464 10.6414L9.69726 6.12148Z" fill="#ED3AB2"/>
</svg>
