<svg width="18" height="9" viewBox="0 0 18 9" fill="none" xmlns="http://www.w3.org/2000/svg">
<path d="M17.7938 4.00229C17.7936 4.00208 17.7934 4.00183 17.7931 4.00162L14.1192 0.345373C13.8439 0.0714704 13.3987 0.0724897 13.1248 0.347763C12.8508 0.623001 12.8519 1.06818 13.1271 1.34212L15.5938 3.79687H0.703125C0.314789 3.79687 0 4.11166 0 4.5C0 4.88833 0.314789 5.20312 0.703125 5.20312H15.5938L13.1272 7.65787C12.8519 7.93181 12.8509 8.37699 13.1248 8.65223C13.3988 8.92754 13.844 8.92848 14.1192 8.65462L17.7932 4.99837C17.7934 4.99816 17.7936 4.99791 17.7938 4.9977C18.0692 4.72285 18.0683 4.27623 17.7938 4.00229Z" fill="#ED3AB2"/>
</svg>
