<svg width="60" height="60" viewBox="0 0 60 60" fill="none" xmlns="http://www.w3.org/2000/svg">
<rect x="1" y="1" width="58" height="58" rx="29" fill="#ED3AB2" stroke="url(#paint0_linear_567_3)" stroke-width="2"/>
<g clip-path="url(#clip0_567_3)">
<path d="M37.25 29.75H31.25V23.75C31.25 23.336 30.914 23 30.5 23C30.086 23 29.75 23.336 29.75 23.75V29.75H23.75C23.336 29.75 23 30.086 23 30.5C23 30.914 23.336 31.25 23.75 31.25H29.75V37.25C29.75 37.664 30.086 38 30.5 38C30.914 38 31.25 37.664 31.25 37.25V31.25H37.25C37.664 31.25 38 30.914 38 30.5C38 30.086 37.664 29.75 37.25 29.75Z" fill="white"/>
</g>
<defs>
<linearGradient id="paint0_linear_567_3" x1="30" y1="0" x2="30" y2="60" gradientUnits="userSpaceOnUse">
<stop stop-color="#FFA6E2"/>
<stop offset="1" stop-color="#D8299E"/>
</linearGradient>
<clipPath id="clip0_567_3">
<rect width="15" height="15" fill="white" transform="translate(23 23)"/>
</clipPath>
</defs>
</svg>
