<svg width="18" height="9" viewBox="0 0 18 9" fill="none" xmlns="http://www.w3.org/2000/svg">
<path d="M0.206234 4.00229C0.206446 4.00208 0.206621 4.00183 0.206867 4.00162L3.88083 0.345373C4.15607 0.0714704 4.60126 0.0724897 4.87523 0.347763C5.14917 0.623001 5.14811 1.06818 4.87287 1.34212L2.40617 3.79687H17.2969C17.6852 3.79687 18 4.11166 18 4.5C18 4.88833 17.6852 5.20312 17.2969 5.20312H2.40621L4.87284 7.65787C5.14808 7.93181 5.14913 8.37699 4.87519 8.65223C4.60122 8.92754 4.156 8.92848 3.8808 8.65462L0.206831 4.99837C0.206621 4.99816 0.206444 4.99791 0.206198 4.9977C-0.0691795 4.72285 -0.0683002 4.27623 0.206234 4.00229Z" fill="#ED3AB2"/>
</svg>
