<svg width="43" height="50" viewBox="0 0 43 50" fill="none" xmlns="http://www.w3.org/2000/svg">
<path d="M41.9595 4.82169C41.2696 4.01036 40.2634 3.54522 39.1991 3.54522H35.7056V2.45245C35.7056 1.1002 34.6053 0 33.2532 0H9.56251C8.21016 0 7.11016 1.1002 7.11016 2.45235V3.54512H3.61631C2.55195 3.54512 1.5457 4.01036 0.855851 4.82159C0.173038 5.62443 -0.12208 6.67892 0.046377 7.71457C0.964348 13.3591 4.5166 18.3457 9.55812 21.081C10.0188 22.1885 10.5404 23.2375 11.1214 24.2149C12.9771 27.3375 15.284 29.4955 17.8233 30.5391C18.0806 33.1411 16.3492 35.606 13.7418 36.1934C13.7362 36.1947 13.7323 36.1967 13.7269 36.1979C13.218 36.3195 12.8392 36.7761 12.8392 37.3222V42.6311H10.6921C8.77784 42.6311 7.22051 44.1885 7.22051 46.1027V48.8428C7.22051 49.4819 7.73858 50 8.37774 50H34.5484C35.1876 50 35.7056 49.4819 35.7056 48.8428V46.1027C35.7056 44.1885 34.1483 42.6311 32.234 42.6311H30.0868V37.3223C30.0868 36.7752 29.7066 36.3178 29.1963 36.1973C29.1916 36.1962 29.187 36.1946 29.1822 36.1934C26.555 35.6021 24.8204 33.1124 25.1048 30.4909C27.5998 29.4303 29.8663 27.2916 31.6946 24.2151C32.2755 23.2376 32.7971 22.1885 33.2579 21.0808C38.2991 18.3454 41.8511 13.3589 42.7691 7.71457C42.9376 6.67892 42.6425 5.62452 41.9595 4.82169ZM2.33076 7.34298C2.2706 6.97316 2.37285 6.61017 2.61875 6.32091C2.86826 6.02755 3.23173 5.85939 3.61621 5.85939H7.11006V7.98849C7.11006 11.327 7.53614 14.5608 8.34366 17.5181C5.17022 15.0104 2.98525 11.3675 2.33076 7.34298ZM32.234 44.9457C32.8721 44.9457 33.3913 45.4648 33.3913 46.1029V47.6857H9.53487V46.1029C9.53487 45.4648 10.054 44.9457 10.6921 44.9457H32.234ZM27.7723 38.4796V42.6312H15.1538V38.4796H27.7723ZM18.1887 36.1652C18.4747 35.8504 18.7363 35.5091 18.9701 35.1437C19.7413 33.9387 20.1461 32.5698 20.1643 31.1716C20.5753 31.2276 20.9902 31.2576 21.4085 31.2576C21.8637 31.2576 22.3147 31.2226 22.7613 31.1564C22.7876 33.0352 23.5189 34.8136 24.7485 36.1651H18.1887V36.1652ZM33.3911 7.98859C33.3911 13.6897 32.0819 19.0325 29.7048 23.0325C27.44 26.844 24.4935 28.9431 21.4083 28.9431C18.3227 28.9431 15.376 26.8441 13.1109 23.0327C10.7337 19.0326 9.42452 13.6898 9.42452 7.98879V2.45235C9.42452 2.37618 9.48643 2.31436 9.56241 2.31436H33.253C33.3292 2.31436 33.3911 2.37627 33.3911 2.45235V7.98859ZM40.4847 7.34298C39.8302 11.3672 37.6455 15.01 34.4721 17.5179C35.2795 14.5606 35.7056 11.327 35.7056 7.98859V5.85948H39.1991C39.5837 5.85948 39.9471 6.02775 40.1966 6.32101C40.4425 6.61017 40.5448 6.97316 40.4847 7.34298Z" fill="white"/>
<path d="M28.4332 11.8807C28.297 11.4619 27.9349 11.1567 27.4991 11.0932L24.0071 10.5858L22.4454 7.4215C22.2504 7.02658 21.8482 6.77648 21.4077 6.77648C20.9672 6.77648 20.565 7.02658 20.37 7.4215L18.8084 10.5858L15.3164 11.0932C14.8805 11.1565 14.5184 11.4618 14.3822 11.8808C14.2462 12.2998 14.3597 12.7596 14.6751 13.0671L17.202 15.5301L16.6054 19.0079C16.5309 19.4421 16.7093 19.8808 17.0657 20.1398C17.422 20.3987 17.8946 20.4328 18.2844 20.2279L21.4077 18.586L24.531 20.2279C24.7003 20.3168 24.8852 20.3607 25.0693 20.3607C25.3091 20.3607 25.548 20.2862 25.7495 20.1397C26.106 19.8807 26.2844 19.442 26.2099 19.0079L25.6133 15.53L28.1402 13.067C28.4558 12.7596 28.5693 12.2997 28.4332 11.8807ZM23.5624 14.2974C23.2897 14.5632 23.1652 14.9462 23.2296 15.3217L23.5326 17.0883L21.9461 16.2542C21.7777 16.1656 21.5926 16.1214 21.4076 16.1214C21.2227 16.1214 21.0377 16.1658 20.8692 16.2542L19.2827 17.0883L19.5857 15.3217C19.6501 14.9463 19.5256 14.5633 19.2529 14.2974L17.9696 13.0464L19.7432 12.7886C20.12 12.7339 20.4459 12.4971 20.6145 12.1556L21.4077 10.5484L22.2009 12.1556C22.3696 12.4971 22.6952 12.7338 23.0722 12.7886L24.8458 13.0464L23.5624 14.2974Z" fill="white"/>
</svg>
